# PoKingHill arena dome, generated by koth/build_mjcf.py
v -1.5 0 0
v -1.48717 0 0.19579
v -1.44889 0 0.38823
v -1.38582 0 0.57403
v -1.29904 0 0.75
v -1.19003 0 0.91314
v -1.06066 0 1.06066
v -0.91314 0 1.19003
v -0.75 0 1.29904
v -0.57403 0 1.38582
v -0.38823 0 1.44889
v -0.19579 0 1.48717
v 0 0 1.5
v 0.19579 0 1.48717
v 0.38823 0 1.44889
v 0.57403 0 1.38582
v 0.75 0 1.29904
v 0.91314 0 1.19003
v 1.06066 0 1.06066
v 1.19003 0 0.91314
v 1.29904 0 0.75
v 1.38582 0 0.57403
v 1.44889 0 0.38823
v 1.48717 0 0.19579
v 1.5 0 0
v 1.48717 0 -0.19579
v 1.44889 0 -0.38823
v 1.38582 0 -0.57403
v 1.29904 0 -0.75
v 1.19003 0 -0.91314
v 1.06066 0 -1.06066
v 0.91314 0 -1.19003
v 0.75 0 -1.29904
v 0.57403 0 -1.38582
v 0.38823 0 -1.44889
v 0.19579 0 -1.48717
v 0 0 -1.5
v -0.19579 0 -1.48717
v -0.38823 0 -1.44889
v -0.57403 0 -1.38582
v -0.75 0 -1.29904
v -0.91314 0 -1.19003
v -1.06066 0 -1.06066
v -1.19003 0 -0.91314
v -1.29904 0 -0.75
v -1.38582 0 -0.57403
v -1.44889 0 -0.38823
v -1.48717 0 -0.19579
v -1.6633 -0.00296 0
v -1.64907 -0.00296 0.2171
v -1.60662 -0.00296 0.43049
v -1.53669 -0.00296 0.63652
v -1.44046 -0.00296 0.83165
v -1.31958 -0.00296 1.01255
v -1.17613 -0.00296 1.17613
v -1.01255 -0.00296 1.31958
v -0.83165 -0.00296 1.44046
v -0.63652 -0.00296 1.53669
v -0.43049 -0.00296 1.60662
v -0.2171 -0.00296 1.64907
v 0 -0.00296 1.6633
v 0.2171 -0.00296 1.64907
v 0.43049 -0.00296 1.60662
v 0.63652 -0.00296 1.53669
v 0.83165 -0.00296 1.44046
v 1.01255 -0.00296 1.31958
v 1.17613 -0.00296 1.17613
v 1.31958 -0.00296 1.01255
v 1.44046 -0.00296 0.83165
v 1.53669 -0.00296 0.63652
v 1.60662 -0.00296 0.43049
v 1.64907 -0.00296 0.2171
v 1.6633 -0.00296 0
v 1.64907 -0.00296 -0.2171
v 1.60662 -0.00296 -0.43049
v 1.53669 -0.00296 -0.63652
v 1.44046 -0.00296 -0.83165
v 1.31958 -0.00296 -1.01255
v 1.17613 -0.00296 -1.17613
v 1.01255 -0.00296 -1.31958
v 0.83165 -0.00296 -1.44046
v 0.63652 -0.00296 -1.53669
v 0.43049 -0.00296 -1.60662
v 0.2171 -0.00296 -1.64907
v 0 -0.00296 -1.6633
v -0.2171 -0.00296 -1.64907
v -0.43049 -0.00296 -1.60662
v -0.63652 -0.00296 -1.53669
v -0.83165 -0.00296 -1.44046
v -1.01255 -0.00296 -1.31958
v -1.17613 -0.00296 -1.17613
v -1.31958 -0.00296 -1.01255
v -1.44046 -0.00296 -0.83165
v -1.53669 -0.00296 -0.63652
v -1.60662 -0.00296 -0.43049
v -1.64907 -0.00296 -0.2171
v -1.96188 -0.0237 0
v -1.9451 -0.0237 0.25608
v -1.89503 -0.0237 0.50777
v -1.81254 -0.0237 0.75078
v -1.69904 -0.0237 0.98094
v -1.55646 -0.0237 1.19432
v -1.38726 -0.0237 1.38726
v -1.19432 -0.0237 1.55646
v -0.98094 -0.0237 1.69904
v -0.75078 -0.0237 1.81254
v -0.50777 -0.0237 1.89503
v -0.25608 -0.0237 1.9451
v 0 -0.0237 1.96188
v 0.25608 -0.0237 1.9451
v 0.50777 -0.0237 1.89503
v 0.75078 -0.0237 1.81254
v 0.98094 -0.0237 1.69904
v 1.19432 -0.0237 1.55646
v 1.38726 -0.0237 1.38726
v 1.55646 -0.0237 1.19432
v 1.69904 -0.0237 0.98094
v 1.81254 -0.0237 0.75078
v 1.89503 -0.0237 0.50777
v 1.9451 -0.0237 0.25608
v 1.96188 -0.0237 0
v 1.9451 -0.0237 -0.25608
v 1.89503 -0.0237 -0.50777
v 1.81254 -0.0237 -0.75078
v 1.69904 -0.0237 -0.98094
v 1.55646 -0.0237 -1.19432
v 1.38726 -0.0237 -1.38726
v 1.19432 -0.0237 -1.55646
v 0.98094 -0.0237 -1.69904
v 0.75078 -0.0237 -1.81254
v 0.50777 -0.0237 -1.89503
v 0.25608 -0.0237 -1.9451
v 0 -0.0237 -1.96188
v -0.25608 -0.0237 -1.9451
v -0.50777 -0.0237 -1.89503
v -0.75078 -0.0237 -1.81254
v -0.98094 -0.0237 -1.69904
v -1.19432 -0.0237 -1.55646
v -1.38726 -0.0237 -1.38726
v -1.55646 -0.0237 -1.19432
v -1.69904 -0.0237 -0.98094
v -1.81254 -0.0237 -0.75078
v -1.89503 -0.0237 -0.50777
v -1.9451 -0.0237 -0.25608
v -2.34853 -0.08 0
v -2.32844 -0.08 0.30654
v -2.2685 -0.08 0.60784
v -2.16976 -0.08 0.89874
v -2.03389 -0.08 1.17426
v -1.86321 -0.08 1.42969
v -1.66066 -0.08 1.66066
v -1.42969 -0.08 1.86321
v -1.17426 -0.08 2.03389
v -0.89874 -0.08 2.16976
v -0.60784 -0.08 2.2685
v -0.30654 -0.08 2.32844
v 0 -0.08 2.34853
v 0.30654 -0.08 2.32844
v 0.60784 -0.08 2.2685
v 0.89874 -0.08 2.16976
v 1.17426 -0.08 2.03389
v 1.42969 -0.08 1.86321
v 1.66066 -0.08 1.66066
v 1.86321 -0.08 1.42969
v 2.03389 -0.08 1.17426
v 2.16976 -0.08 0.89874
v 2.2685 -0.08 0.60784
v 2.32844 -0.08 0.30654
v 2.34853 -0.08 0
v 2.32844 -0.08 -0.30654
v 2.2685 -0.08 -0.60784
v 2.16976 -0.08 -0.89874
v 2.03389 -0.08 -1.17426
v 1.86321 -0.08 -1.42969
v 1.66066 -0.08 -1.66066
v 1.42969 -0.08 -1.86321
v 1.17426 -0.08 -2.03389
v 0.89874 -0.08 -2.16976
v 0.60784 -0.08 -2.2685
v 0.30654 -0.08 -2.32844
v 0 -0.08 -2.34853
v -0.30654 -0.08 -2.32844
v -0.60784 -0.08 -2.2685
v -0.89874 -0.08 -2.16976
v -1.17426 -0.08 -2.03389
v -1.42969 -0.08 -1.86321
v -1.66066 -0.08 -1.66066
v -1.86321 -0.08 -1.42969
v -2.03389 -0.08 -1.17426
v -2.16976 -0.08 -0.89874
v -2.2685 -0.08 -0.60784
v -2.32844 -0.08 -0.30654
v -2.80639 -0.18963 0
v -2.78239 -0.18963 0.36631
v -2.71077 -0.18963 0.72635
v -2.59277 -0.18963 1.07396
v -2.43041 -0.18963 1.4032
v -2.22646 -0.18963 1.70842
v -1.98442 -0.18963 1.98442
v -1.70842 -0.18963 2.22646
v -1.4032 -0.18963 2.43041
v -1.07396 -0.18963 2.59277
v -0.72635 -0.18963 2.71077
v -0.36631 -0.18963 2.78239
v 0 -0.18963 2.80639
v 0.36631 -0.18963 2.78239
v 0.72635 -0.18963 2.71077
v 1.07396 -0.18963 2.59277
v 1.4032 -0.18963 2.43041
v 1.70842 -0.18963 2.22646
v 1.98442 -0.18963 1.98442
v 2.22646 -0.18963 1.70842
v 2.43041 -0.18963 1.4032
v 2.59277 -0.18963 1.07396
v 2.71077 -0.18963 0.72635
v 2.78239 -0.18963 0.36631
v 2.80639 -0.18963 0
v 2.78239 -0.18963 -0.36631
v 2.71077 -0.18963 -0.72635
v 2.59277 -0.18963 -1.07396
v 2.43041 -0.18963 -1.4032
v 2.22646 -0.18963 -1.70842
v 1.98442 -0.18963 -1.98442
v 1.70842 -0.18963 -2.22646
v 1.4032 -0.18963 -2.43041
v 1.07396 -0.18963 -2.59277
v 0.72635 -0.18963 -2.71077
v 0.36631 -0.18963 -2.78239
v 0 -0.18963 -2.80639
v -0.36631 -0.18963 -2.78239
v -0.72635 -0.18963 -2.71077
v -1.07396 -0.18963 -2.59277
v -1.4032 -0.18963 -2.43041
v -1.70842 -0.18963 -2.22646
v -1.98442 -0.18963 -1.98442
v -2.22646 -0.18963 -1.70842
v -2.43041 -0.18963 -1.4032
v -2.59277 -0.18963 -1.07396
v -2.71077 -0.18963 -0.72635
v -2.78239 -0.18963 -0.36631
v -3.32574 -0.37037 0
v -3.29729 -0.37037 0.4341
v -3.21242 -0.37037 0.86077
v -3.07258 -0.37037 1.27271
v -2.88018 -0.37037 1.66287
v -2.63849 -0.37037 2.02458
v -2.35165 -0.37037 2.35165
v -2.02458 -0.37037 2.63849
v -1.66287 -0.37037 2.88018
v -1.27271 -0.37037 3.07258
v -0.86077 -0.37037 3.21242
v -0.4341 -0.37037 3.29729
v 0 -0.37037 3.32574
v 0.4341 -0.37037 3.29729
v 0.86077 -0.37037 3.21242
v 1.27271 -0.37037 3.07258
v 1.66287 -0.37037 2.88018
v 2.02458 -0.37037 2.63849
v 2.35165 -0.37037 2.35165
v 2.63849 -0.37037 2.02458
v 2.88018 -0.37037 1.66287
v 3.07258 -0.37037 1.27271
v 3.21242 -0.37037 0.86077
v 3.29729 -0.37037 0.4341
v 3.32574 -0.37037 0
v 3.29729 -0.37037 -0.4341
v 3.21242 -0.37037 -0.86077
v 3.07258 -0.37037 -1.27271
v 2.88018 -0.37037 -1.66287
v 2.63849 -0.37037 -2.02458
v 2.35165 -0.37037 -2.35165
v 2.02458 -0.37037 -2.63849
v 1.66287 -0.37037 -2.88018
v 1.27271 -0.37037 -3.07258
v 0.86077 -0.37037 -3.21242
v 0.4341 -0.37037 -3.29729
v 0 -0.37037 -3.32574
v -0.4341 -0.37037 -3.29729
v -0.86077 -0.37037 -3.21242
v -1.27271 -0.37037 -3.07258
v -1.66287 -0.37037 -2.88018
v -2.02458 -0.37037 -2.63849
v -2.35165 -0.37037 -2.35165
v -2.63849 -0.37037 -2.02458
v -2.88018 -0.37037 -1.66287
v -3.07258 -0.37037 -1.27271
v -3.21242 -0.37037 -0.86077
v -3.29729 -0.37037 -0.4341
v -3.9 -0.64 0
v -3.86663 -0.64 0.50905
v -3.76711 -0.64 1.00939
v -3.60313 -0.64 1.49247
v -3.3775 -0.64 1.95
v -3.09408 -0.64 2.37417
v -2.75772 -0.64 2.75772
v -2.37417 -0.64 3.09408
v -1.95 -0.64 3.3775
v -1.49247 -0.64 3.60313
v -1.00939 -0.64 3.76711
v -0.50905 -0.64 3.86663
v 0 -0.64 3.9
v 0.50905 -0.64 3.86663
v 1.00939 -0.64 3.76711
v 1.49247 -0.64 3.60313
v 1.95 -0.64 3.3775
v 2.37417 -0.64 3.09408
v 2.75772 -0.64 2.75772
v 3.09408 -0.64 2.37417
v 3.3775 -0.64 1.95
v 3.60313 -0.64 1.49247
v 3.76711 -0.64 1.00939
v 3.86663 -0.64 0.50905
v 3.9 -0.64 0
v 3.86663 -0.64 -0.50905
v 3.76711 -0.64 -1.00939
v 3.60313 -0.64 -1.49247
v 3.3775 -0.64 -1.95
v 3.09408 -0.64 -2.37417
v 2.75772 -0.64 -2.75772
v 2.37417 -0.64 -3.09408
v 1.95 -0.64 -3.3775
v 1.49247 -0.64 -3.60313
v 1.00939 -0.64 -3.76711
v 0.50905 -0.64 -3.86663
v 0 -0.64 -3.9
v -0.50905 -0.64 -3.86663
v -1.00939 -0.64 -3.76711
v -1.49247 -0.64 -3.60313
v -1.95 -0.64 -3.3775
v -2.37417 -0.64 -3.09408
v -2.75772 -0.64 -2.75772
v -3.09408 -0.64 -2.37417
v -3.3775 -0.64 -1.95
v -3.60313 -0.64 -1.49247
v -3.76711 -0.64 -1.00939
v -3.86663 -0.64 -0.50905
v -4.52435 -1.0163 0
v -4.48564 -1.0163 0.59055
v -4.37018 -1.0163 1.17099
v -4.17995 -1.0163 1.73139
v -3.9182 -1.0163 2.26217
v -3.5894 -1.0163 2.75425
v -3.1992 -1.0163 3.1992
v -2.75425 -1.0163 3.5894
v -2.26217 -1.0163 3.9182
v -1.73139 -1.0163 4.17995
v -1.17099 -1.0163 4.37018
v -0.59055 -1.0163 4.48564
v 0 -1.0163 4.52435
v 0.59055 -1.0163 4.48564
v 1.17099 -1.0163 4.37018
v 1.73139 -1.0163 4.17995
v 2.26217 -1.0163 3.9182
v 2.75425 -1.0163 3.5894
v 3.1992 -1.0163 3.1992
v 3.5894 -1.0163 2.75425
v 3.9182 -1.0163 2.26217
v 4.17995 -1.0163 1.73139
v 4.37018 -1.0163 1.17099
v 4.48564 -1.0163 0.59055
v 4.52435 -1.0163 0
v 4.48564 -1.0163 -0.59055
v 4.37018 -1.0163 -1.17099
v 4.17995 -1.0163 -1.73139
v 3.9182 -1.0163 -2.26217
v 3.5894 -1.0163 -2.75425
v 3.1992 -1.0163 -3.1992
v 2.75425 -1.0163 -3.5894
v 2.26217 -1.0163 -3.9182
v 1.73139 -1.0163 -4.17995
v 1.17099 -1.0163 -4.37018
v 0.59055 -1.0163 -4.48564
v 0 -1.0163 -4.52435
v -0.59055 -1.0163 -4.48564
v -1.17099 -1.0163 -4.37018
v -1.73139 -1.0163 -4.17995
v -2.26217 -1.0163 -3.9182
v -2.75425 -1.0163 -3.5894
v -3.1992 -1.0163 -3.1992
v -3.5894 -1.0163 -2.75425
v -3.9182 -1.0163 -2.26217
v -4.17995 -1.0163 -1.73139
v -4.37018 -1.0163 -1.17099
v -4.48564 -1.0163 -0.59055
v -5.19504 -1.51704 0
v -5.1506 -1.51704 0.67809
v -5.01802 -1.51704 1.34458
v -4.79959 -1.51704 1.98806
v -4.49904 -1.51704 2.59752
v -4.1215 -1.51704 3.16254
v -3.67345 -1.51704 3.67345
v -3.16254 -1.51704 4.1215
v -2.59752 -1.51704 4.49904
v -1.98806 -1.51704 4.79959
v -1.34458 -1.51704 5.01802
v -0.67809 -1.51704 5.1506
v 0 -1.51704 5.19504
v 0.67809 -1.51704 5.1506
v 1.34458 -1.51704 5.01802
v 1.98806 -1.51704 4.79959
v 2.59752 -1.51704 4.49904
v 3.16254 -1.51704 4.1215
v 3.67345 -1.51704 3.67345
v 4.1215 -1.51704 3.16254
v 4.49904 -1.51704 2.59752
v 4.79959 -1.51704 1.98806
v 5.01802 -1.51704 1.34458
v 5.1506 -1.51704 0.67809
v 5.19504 -1.51704 0
v 5.1506 -1.51704 -0.67809
v 5.01802 -1.51704 -1.34458
v 4.79959 -1.51704 -1.98806
v 4.49904 -1.51704 -2.59752
v 4.1215 -1.51704 -3.16254
v 3.67345 -1.51704 -3.67345
v 3.16254 -1.51704 -4.1215
v 2.59752 -1.51704 -4.49904
v 1.98806 -1.51704 -4.79959
v 1.34458 -1.51704 -5.01802
v 0.67809 -1.51704 -5.1506
v 0 -1.51704 -5.19504
v -0.67809 -1.51704 -5.1506
v -1.34458 -1.51704 -5.01802
v -1.98806 -1.51704 -4.79959
v -2.59752 -1.51704 -4.49904
v -3.16254 -1.51704 -4.1215
v -3.67345 -1.51704 -3.67345
v -4.1215 -1.51704 -3.16254
v -4.49904 -1.51704 -2.59752
v -4.79959 -1.51704 -1.98806
v -5.01802 -1.51704 -1.34458
v -5.1506 -1.51704 -0.67809
v -5.90908 -2.16 0
v -5.85853 -2.16 0.77129
v -5.70773 -2.16 1.52938
v -5.45928 -2.16 2.26131
v -5.11741 -2.16 2.95454
v -4.68799 -2.16 3.59722
v -4.17835 -2.16 4.17835
v -3.59722 -2.16 4.68799
v -2.95454 -2.16 5.11741
v -2.26131 -2.16 5.45928
v -1.52938 -2.16 5.70773
v -0.77129 -2.16 5.85853
v 0 -2.16 5.90908
v 0.77129 -2.16 5.85853
v 1.52938 -2.16 5.70773
v 2.26131 -2.16 5.45928
v 2.95454 -2.16 5.11741
v 3.59722 -2.16 4.68799
v 4.17835 -2.16 4.17835
v 4.68799 -2.16 3.59722
v 5.11741 -2.16 2.95454
v 5.45928 -2.16 2.26131
v 5.70773 -2.16 1.52938
v 5.85853 -2.16 0.77129
v 5.90908 -2.16 0
v 5.85853 -2.16 -0.77129
v 5.70773 -2.16 -1.52938
v 5.45928 -2.16 -2.26131
v 5.11741 -2.16 -2.95454
v 4.68799 -2.16 -3.59722
v 4.17835 -2.16 -4.17835
v 3.59722 -2.16 -4.68799
v 2.95454 -2.16 -5.11741
v 2.26131 -2.16 -5.45928
v 1.52938 -2.16 -5.70773
v 0.77129 -2.16 -5.85853
v 0 -2.16 -5.90908
v -0.77129 -2.16 -5.85853
v -1.52938 -2.16 -5.70773
v -2.26131 -2.16 -5.45928
v -2.95454 -2.16 -5.11741
v -3.59722 -2.16 -4.68799
v -4.17835 -2.16 -4.17835
v -4.68799 -2.16 -3.59722
v -5.11741 -2.16 -2.95454
v -5.45928 -2.16 -2.26131
v -5.70773 -2.16 -1.52938
v -5.85853 -2.16 -0.77129
v -6.66398 -2.96296 0
v -6.60697 -2.96296 0.86982
v -6.43691 -2.96296 1.72476
v -6.15671 -2.96296 2.55019
v -5.77117 -2.96296 3.33199
v -5.28689 -2.96296 4.05677
v -4.71214 -2.96296 4.71214
v -4.05677 -2.96296 5.28689
v -3.33199 -2.96296 5.77117
v -2.55019 -2.96296 6.15671
v -1.72476 -2.96296 6.43691
v -0.86982 -2.96296 6.60697
v 0 -2.96296 6.66398
v 0.86982 -2.96296 6.60697
v 1.72476 -2.96296 6.43691
v 2.55019 -2.96296 6.15671
v 3.33199 -2.96296 5.77117
v 4.05677 -2.96296 5.28689
v 4.71214 -2.96296 4.71214
v 5.28689 -2.96296 4.05677
v 5.77117 -2.96296 3.33199
v 6.15671 -2.96296 2.55019
v 6.43691 -2.96296 1.72476
v 6.60697 -2.96296 0.86982
v 6.66398 -2.96296 0
v 6.60697 -2.96296 -0.86982
v 6.43691 -2.96296 -1.72476
v 6.15671 -2.96296 -2.55019
v 5.77117 -2.96296 -3.33199
v 5.28689 -2.96296 -4.05677
v 4.71214 -2.96296 -4.71214
v 4.05677 -2.96296 -5.28689
v 3.33199 -2.96296 -5.77117
v 2.55019 -2.96296 -6.15671
v 1.72476 -2.96296 -6.43691
v 0.86982 -2.96296 -6.60697
v 0 -2.96296 -6.66398
v -0.86982 -2.96296 -6.60697
v -1.72476 -2.96296 -6.43691
v -2.55019 -2.96296 -6.15671
v -3.33199 -2.96296 -5.77117
v -4.05677 -2.96296 -5.28689
v -4.71214 -2.96296 -4.71214
v -5.28689 -2.96296 -4.05677
v -5.77117 -2.96296 -3.33199
v -6.15671 -2.96296 -2.55019
v -6.43691 -2.96296 -1.72476
v -6.60697 -2.96296 -0.86982
v -7.45763 -3.9437 0
v -7.39383 -3.9437 0.97342
v -7.20352 -3.9437 1.93018
v -6.88995 -3.9437 2.85391
v -6.4585 -3.9437 3.72881
v -5.91653 -3.9437 4.53992
v -5.27334 -3.9437 5.27334
v -4.53992 -3.9437 5.91653
v -3.72881 -3.9437 6.4585
v -2.85391 -3.9437 6.88995
v -1.93018 -3.9437 7.20352
v -0.97342 -3.9437 7.39383
v 0 -3.9437 7.45763
v 0.97342 -3.9437 7.39383
v 1.93018 -3.9437 7.20352
v 2.85391 -3.9437 6.88995
v 3.72881 -3.9437 6.4585
v 4.53992 -3.9437 5.91653
v 5.27334 -3.9437 5.27334
v 5.91653 -3.9437 4.53992
v 6.4585 -3.9437 3.72881
v 6.88995 -3.9437 2.85391
v 7.20352 -3.9437 1.93018
v 7.39383 -3.9437 0.97342
v 7.45763 -3.9437 0
v 7.39383 -3.9437 -0.97342
v 7.20352 -3.9437 -1.93018
v 6.88995 -3.9437 -2.85391
v 6.4585 -3.9437 -3.72881
v 5.91653 -3.9437 -4.53992
v 5.27334 -3.9437 -5.27334
v 4.53992 -3.9437 -5.91653
v 3.72881 -3.9437 -6.4585
v 2.85391 -3.9437 -6.88995
v 1.93018 -3.9437 -7.20352
v 0.97342 -3.9437 -7.39383
v 0 -3.9437 -7.45763
v -0.97342 -3.9437 -7.39383
v -1.93018 -3.9437 -7.20352
v -2.85391 -3.9437 -6.88995
v -3.72881 -3.9437 -6.4585
v -4.53992 -3.9437 -5.91653
v -5.27334 -3.9437 -5.27334
v -5.91653 -3.9437 -4.53992
v -6.4585 -3.9437 -3.72881
v -6.88995 -3.9437 -2.85391
v -7.20352 -3.9437 -1.93018
v -7.39383 -3.9437 -0.97342
v -8.28823 -5.12 0
v -8.21732 -5.12 1.08183
v -8.00581 -5.12 2.14515
v -7.65732 -5.12 3.17177
v -7.17781 -5.12 4.14411
v -6.57549 -5.12 5.04555
v -5.86066 -5.12 5.86066
v -5.04555 -5.12 6.57549
v -4.14411 -5.12 7.17781
v -3.17177 -5.12 7.65732
v -2.14515 -5.12 8.00581
v -1.08183 -5.12 8.21732
v 0 -5.12 8.28823
v 1.08183 -5.12 8.21732
v 2.14515 -5.12 8.00581
v 3.17177 -5.12 7.65732
v 4.14411 -5.12 7.17781
v 5.04555 -5.12 6.57549
v 5.86066 -5.12 5.86066
v 6.57549 -5.12 5.04555
v 7.17781 -5.12 4.14411
v 7.65732 -5.12 3.17177
v 8.00581 -5.12 2.14515
v 8.21732 -5.12 1.08183
v 8.28823 -5.12 0
v 8.21732 -5.12 -1.08183
v 8.00581 -5.12 -2.14515
v 7.65732 -5.12 -3.17177
v 7.17781 -5.12 -4.14411
v 6.57549 -5.12 -5.04555
v 5.86066 -5.12 -5.86066
v 5.04555 -5.12 -6.57549
v 4.14411 -5.12 -7.17781
v 3.17177 -5.12 -7.65732
v 2.14515 -5.12 -8.00581
v 1.08183 -5.12 -8.21732
v 0 -5.12 -8.28823
v -1.08183 -5.12 -8.21732
v -2.14515 -5.12 -8.00581
v -3.17177 -5.12 -7.65732
v -4.14411 -5.12 -7.17781
v -5.04555 -5.12 -6.57549
v -5.86066 -5.12 -5.86066
v -6.57549 -5.12 -5.04555
v -7.17781 -5.12 -4.14411
v -7.65732 -5.12 -3.17177
v -8.00581 -5.12 -2.14515
v -8.21732 -5.12 -1.08183
v -9.15419 -6.50963 0
v -9.07588 -6.50963 1.19486
v -8.84227 -6.50963 2.36928
v -8.45737 -6.50963 3.50316
v -7.92776 -6.50963 4.5771
v -7.26251 -6.50963 5.57272
v -6.47299 -6.50963 6.47299
v -5.57272 -6.50963 7.26251
v -4.5771 -6.50963 7.92776
v -3.50316 -6.50963 8.45737
v -2.36928 -6.50963 8.84227
v -1.19486 -6.50963 9.07588
v 0 -6.50963 9.15419
v 1.19486 -6.50963 9.07588
v 2.36928 -6.50963 8.84227
v 3.50316 -6.50963 8.45737
v 4.5771 -6.50963 7.92776
v 5.57272 -6.50963 7.26251
v 6.47299 -6.50963 6.47299
v 7.26251 -6.50963 5.57272
v 7.92776 -6.50963 4.5771
v 8.45737 -6.50963 3.50316
v 8.84227 -6.50963 2.36928
v 9.07588 -6.50963 1.19486
v 9.15419 -6.50963 0
v 9.07588 -6.50963 -1.19486
v 8.84227 -6.50963 -2.36928
v 8.45737 -6.50963 -3.50316
v 7.92776 -6.50963 -4.5771
v 7.26251 -6.50963 -5.57272
v 6.47299 -6.50963 -6.47299
v 5.57272 -6.50963 -7.26251
v 4.5771 -6.50963 -7.92776
v 3.50316 -6.50963 -8.45737
v 2.36928 -6.50963 -8.84227
v 1.19486 -6.50963 -9.07588
v 0 -6.50963 -9.15419
v -1.19486 -6.50963 -9.07588
v -2.36928 -6.50963 -8.84227
v -3.50316 -6.50963 -8.45737
v -4.5771 -6.50963 -7.92776
v -5.57272 -6.50963 -7.26251
v -6.47299 -6.50963 -6.47299
v -7.26251 -6.50963 -5.57272
v -7.92776 -6.50963 -4.5771
v -8.45737 -6.50963 -3.50316
v -8.84227 -6.50963 -2.36928
v -9.07588 -6.50963 -1.19486
v -10.05414 -8.13037 0
v -9.96813 -8.13037 1.31233
v -9.71155 -8.13037 2.6022
v -9.28882 -8.13037 3.84755
v -8.70714 -8.13037 5.02707
v -7.97649 -8.13037 6.12057
v -7.10935 -8.13037 7.10935
v -6.12057 -8.13037 7.97649
v -5.02707 -8.13037 8.70714
v -3.84755 -8.13037 9.28882
v -2.6022 -8.13037 9.71155
v -1.31233 -8.13037 9.96813
v 0 -8.13037 10.05414
v 1.31233 -8.13037 9.96813
v 2.6022 -8.13037 9.71155
v 3.84755 -8.13037 9.28882
v 5.02707 -8.13037 8.70714
v 6.12057 -8.13037 7.97649
v 7.10935 -8.13037 7.10935
v 7.97649 -8.13037 6.12057
v 8.70714 -8.13037 5.02707
v 9.28882 -8.13037 3.84755
v 9.71155 -8.13037 2.6022
v 9.96813 -8.13037 1.31233
v 10.05414 -8.13037 0
v 9.96813 -8.13037 -1.31233
v 9.71155 -8.13037 -2.6022
v 9.28882 -8.13037 -3.84755
v 8.70714 -8.13037 -5.02707
v 7.97649 -8.13037 -6.12057
v 7.10935 -8.13037 -7.10935
v 6.12057 -8.13037 -7.97649
v 5.02707 -8.13037 -8.70714
v 3.84755 -8.13037 -9.28882
v 2.6022 -8.13037 -9.71155
v 1.31233 -8.13037 -9.96813
v 0 -8.13037 -10.05414
v -1.31233 -8.13037 -9.96813
v -2.6022 -8.13037 -9.71155
v -3.84755 -8.13037 -9.28882
v -5.02707 -8.13037 -8.70714
v -6.12057 -8.13037 -7.97649
v -7.10935 -8.13037 -7.10935
v -7.97649 -8.13037 -6.12057
v -8.70714 -8.13037 -5.02707
v -9.28882 -8.13037 -3.84755
v -9.71155 -8.13037 -2.6022
v -9.96813 -8.13037 -1.31233
v -10.98683 -10 0
v -10.89284 -10 1.43407
v -10.61247 -10 2.8436
v -10.15051 -10 4.20448
v -9.51488 -10 5.49342
v -8.71644 -10 6.68836
v -7.76886 -10 7.76886
v -6.68836 -10 8.71644
v -5.49342 -10 9.51488
v -4.20448 -10 10.15051
v -2.8436 -10 10.61247
v -1.43407 -10 10.89284
v 0 -10 10.98683
v 1.43407 -10 10.89284
v 2.8436 -10 10.61247
v 4.20448 -10 10.15051
v 5.49342 -10 9.51488
v 6.68836 -10 8.71644
v 7.76886 -10 7.76886
v 8.71644 -10 6.68836
v 9.51488 -10 5.49342
v 10.15051 -10 4.20448
v 10.61247 -10 2.8436
v 10.89284 -10 1.43407
v 10.98683 -10 0
v 10.89284 -10 -1.43407
v 10.61247 -10 -2.8436
v 10.15051 -10 -4.20448
v 9.51488 -10 -5.49342
v 8.71644 -10 -6.68836
v 7.76886 -10 -7.76886
v 6.68836 -10 -8.71644
v 5.49342 -10 -9.51488
v 4.20448 -10 -10.15051
v 2.8436 -10 -10.61247
v 1.43407 -10 -10.89284
v 0 -10 -10.98683
v -1.43407 -10 -10.89284
v -2.8436 -10 -10.61247
v -4.20448 -10 -10.15051
v -5.49342 -10 -9.51488
v -6.68836 -10 -8.71644
v -7.76886 -10 -7.76886
v -8.71644 -10 -6.68836
v -9.51488 -10 -5.49342
v -10.15051 -10 -4.20448
v -10.61247 -10 -2.8436
v -10.89284 -10 -1.43407
v -10.98683 -10.5 0
v -10.89284 -10.5 1.43407
v -10.61247 -10.5 2.8436
v -10.15051 -10.5 4.20448
v -9.51488 -10.5 5.49342
v -8.71644 -10.5 6.68836
v -7.76886 -10.5 7.76886
v -6.68836 -10.5 8.71644
v -5.49342 -10.5 9.51488
v -4.20448 -10.5 10.15051
v -2.8436 -10.5 10.61247
v -1.43407 -10.5 10.89284
v 0 -10.5 10.98683
v 1.43407 -10.5 10.89284
v 2.8436 -10.5 10.61247
v 4.20448 -10.5 10.15051
v 5.49342 -10.5 9.51488
v 6.68836 -10.5 8.71644
v 7.76886 -10.5 7.76886
v 8.71644 -10.5 6.68836
v 9.51488 -10.5 5.49342
v 10.15051 -10.5 4.20448
v 10.61247 -10.5 2.8436
v 10.89284 -10.5 1.43407
v 10.98683 -10.5 0
v 10.89284 -10.5 -1.43407
v 10.61247 -10.5 -2.8436
v 10.15051 -10.5 -4.20448
v 9.51488 -10.5 -5.49342
v 8.71644 -10.5 -6.68836
v 7.76886 -10.5 -7.76886
v 6.68836 -10.5 -8.71644
v 5.49342 -10.5 -9.51488
v 4.20448 -10.5 -10.15051
v 2.8436 -10.5 -10.61247
v 1.43407 -10.5 -10.89284
v 0 -10.5 -10.98683
v -1.43407 -10.5 -10.89284
v -2.8436 -10.5 -10.61247
v -4.20448 -10.5 -10.15051
v -5.49342 -10.5 -9.51488
v -6.68836 -10.5 -8.71644
v -7.76886 -10.5 -7.76886
v -8.71644 -10.5 -6.68836
v -9.51488 -10.5 -5.49342
v -10.15051 -10.5 -4.20448
v -10.61247 -10.5 -2.8436
v -10.89284 -10.5 -1.43407
v 0 0 0
v 0 -10.5 0
f 1 2 50
f 1 50 49
f 2 3 51
f 2 51 50
f 3 4 52
f 3 52 51
f 4 5 53
f 4 53 52
f 5 6 54
f 5 54 53
f 6 7 55
f 6 55 54
f 7 8 56
f 7 56 55
f 8 9 57
f 8 57 56
f 9 10 58
f 9 58 57
f 10 11 59
f 10 59 58
f 11 12 60
f 11 60 59
f 12 13 61
f 12 61 60
f 13 14 62
f 13 62 61
f 14 15 63
f 14 63 62
f 15 16 64
f 15 64 63
f 16 17 65
f 16 65 64
f 17 18 66
f 17 66 65
f 18 19 67
f 18 67 66
f 19 20 68
f 19 68 67
f 20 21 69
f 20 69 68
f 21 22 70
f 21 70 69
f 22 23 71
f 22 71 70
f 23 24 72
f 23 72 71
f 24 25 73
f 24 73 72
f 25 26 74
f 25 74 73
f 26 27 75
f 26 75 74
f 27 28 76
f 27 76 75
f 28 29 77
f 28 77 76
f 29 30 78
f 29 78 77
f 30 31 79
f 30 79 78
f 31 32 80
f 31 80 79
f 32 33 81
f 32 81 80
f 33 34 82
f 33 82 81
f 34 35 83
f 34 83 82
f 35 36 84
f 35 84 83
f 36 37 85
f 36 85 84
f 37 38 86
f 37 86 85
f 38 39 87
f 38 87 86
f 39 40 88
f 39 88 87
f 40 41 89
f 40 89 88
f 41 42 90
f 41 90 89
f 42 43 91
f 42 91 90
f 43 44 92
f 43 92 91
f 44 45 93
f 44 93 92
f 45 46 94
f 45 94 93
f 46 47 95
f 46 95 94
f 47 48 96
f 47 96 95
f 48 1 49
f 48 49 96
f 49 50 98
f 49 98 97
f 50 51 99
f 50 99 98
f 51 52 100
f 51 100 99
f 52 53 101
f 52 101 100
f 53 54 102
f 53 102 101
f 54 55 103
f 54 103 102
f 55 56 104
f 55 104 103
f 56 57 105
f 56 105 104
f 57 58 106
f 57 106 105
f 58 59 107
f 58 107 106
f 59 60 108
f 59 108 107
f 60 61 109
f 60 109 108
f 61 62 110
f 61 110 109
f 62 63 111
f 62 111 110
f 63 64 112
f 63 112 111
f 64 65 113
f 64 113 112
f 65 66 114
f 65 114 113
f 66 67 115
f 66 115 114
f 67 68 116
f 67 116 115
f 68 69 117
f 68 117 116
f 69 70 118
f 69 118 117
f 70 71 119
f 70 119 118
f 71 72 120
f 71 120 119
f 72 73 121
f 72 121 120
f 73 74 122
f 73 122 121
f 74 75 123
f 74 123 122
f 75 76 124
f 75 124 123
f 76 77 125
f 76 125 124
f 77 78 126
f 77 126 125
f 78 79 127
f 78 127 126
f 79 80 128
f 79 128 127
f 80 81 129
f 80 129 128
f 81 82 130
f 81 130 129
f 82 83 131
f 82 131 130
f 83 84 132
f 83 132 131
f 84 85 133
f 84 133 132
f 85 86 134
f 85 134 133
f 86 87 135
f 86 135 134
f 87 88 136
f 87 136 135
f 88 89 137
f 88 137 136
f 89 90 138
f 89 138 137
f 90 91 139
f 90 139 138
f 91 92 140
f 91 140 139
f 92 93 141
f 92 141 140
f 93 94 142
f 93 142 141
f 94 95 143
f 94 143 142
f 95 96 144
f 95 144 143
f 96 49 97
f 96 97 144
f 97 98 146
f 97 146 145
f 98 99 147
f 98 147 146
f 99 100 148
f 99 148 147
f 100 101 149
f 100 149 148
f 101 102 150
f 101 150 149
f 102 103 151
f 102 151 150
f 103 104 152
f 103 152 151
f 104 105 153
f 104 153 152
f 105 106 154
f 105 154 153
f 106 107 155
f 106 155 154
f 107 108 156
f 107 156 155
f 108 109 157
f 108 157 156
f 109 110 158
f 109 158 157
f 110 111 159
f 110 159 158
f 111 112 160
f 111 160 159
f 112 113 161
f 112 161 160
f 113 114 162
f 113 162 161
f 114 115 163
f 114 163 162
f 115 116 164
f 115 164 163
f 116 117 165
f 116 165 164
f 117 118 166
f 117 166 165
f 118 119 167
f 118 167 166
f 119 120 168
f 119 168 167
f 120 121 169
f 120 169 168
f 121 122 170
f 121 170 169
f 122 123 171
f 122 171 170
f 123 124 172
f 123 172 171
f 124 125 173
f 124 173 172
f 125 126 174
f 125 174 173
f 126 127 175
f 126 175 174
f 127 128 176
f 127 176 175
f 128 129 177
f 128 177 176
f 129 130 178
f 129 178 177
f 130 131 179
f 130 179 178
f 131 132 180
f 131 180 179
f 132 133 181
f 132 181 180
f 133 134 182
f 133 182 181
f 134 135 183
f 134 183 182
f 135 136 184
f 135 184 183
f 136 137 185
f 136 185 184
f 137 138 186
f 137 186 185
f 138 139 187
f 138 187 186
f 139 140 188
f 139 188 187
f 140 141 189
f 140 189 188
f 141 142 190
f 141 190 189
f 142 143 191
f 142 191 190
f 143 144 192
f 143 192 191
f 144 97 145
f 144 145 192
f 145 146 194
f 145 194 193
f 146 147 195
f 146 195 194
f 147 148 196
f 147 196 195
f 148 149 197
f 148 197 196
f 149 150 198
f 149 198 197
f 150 151 199
f 150 199 198
f 151 152 200
f 151 200 199
f 152 153 201
f 152 201 200
f 153 154 202
f 153 202 201
f 154 155 203
f 154 203 202
f 155 156 204
f 155 204 203
f 156 157 205
f 156 205 204
f 157 158 206
f 157 206 205
f 158 159 207
f 158 207 206
f 159 160 208
f 159 208 207
f 160 161 209
f 160 209 208
f 161 162 210
f 161 210 209
f 162 163 211
f 162 211 210
f 163 164 212
f 163 212 211
f 164 165 213
f 164 213 212
f 165 166 214
f 165 214 213
f 166 167 215
f 166 215 214
f 167 168 216
f 167 216 215
f 168 169 217
f 168 217 216
f 169 170 218
f 169 218 217
f 170 171 219
f 170 219 218
f 171 172 220
f 171 220 219
f 172 173 221
f 172 221 220
f 173 174 222
f 173 222 221
f 174 175 223
f 174 223 222
f 175 176 224
f 175 224 223
f 176 177 225
f 176 225 224
f 177 178 226
f 177 226 225
f 178 179 227
f 178 227 226
f 179 180 228
f 179 228 227
f 180 181 229
f 180 229 228
f 181 182 230
f 181 230 229
f 182 183 231
f 182 231 230
f 183 184 232
f 183 232 231
f 184 185 233
f 184 233 232
f 185 186 234
f 185 234 233
f 186 187 235
f 186 235 234
f 187 188 236
f 187 236 235
f 188 189 237
f 188 237 236
f 189 190 238
f 189 238 237
f 190 191 239
f 190 239 238
f 191 192 240
f 191 240 239
f 192 145 193
f 192 193 240
f 193 194 242
f 193 242 241
f 194 195 243
f 194 243 242
f 195 196 244
f 195 244 243
f 196 197 245
f 196 245 244
f 197 198 246
f 197 246 245
f 198 199 247
f 198 247 246
f 199 200 248
f 199 248 247
f 200 201 249
f 200 249 248
f 201 202 250
f 201 250 249
f 202 203 251
f 202 251 250
f 203 204 252
f 203 252 251
f 204 205 253
f 204 253 252
f 205 206 254
f 205 254 253
f 206 207 255
f 206 255 254
f 207 208 256
f 207 256 255
f 208 209 257
f 208 257 256
f 209 210 258
f 209 258 257
f 210 211 259
f 210 259 258
f 211 212 260
f 211 260 259
f 212 213 261
f 212 261 260
f 213 214 262
f 213 262 261
f 214 215 263
f 214 263 262
f 215 216 264
f 215 264 263
f 216 217 265
f 216 265 264
f 217 218 266
f 217 266 265
f 218 219 267
f 218 267 266
f 219 220 268
f 219 268 267
f 220 221 269
f 220 269 268
f 221 222 270
f 221 270 269
f 222 223 271
f 222 271 270
f 223 224 272
f 223 272 271
f 224 225 273
f 224 273 272
f 225 226 274
f 225 274 273
f 226 227 275
f 226 275 274
f 227 228 276
f 227 276 275
f 228 229 277
f 228 277 276
f 229 230 278
f 229 278 277
f 230 231 279
f 230 279 278
f 231 232 280
f 231 280 279
f 232 233 281
f 232 281 280
f 233 234 282
f 233 282 281
f 234 235 283
f 234 283 282
f 235 236 284
f 235 284 283
f 236 237 285
f 236 285 284
f 237 238 286
f 237 286 285
f 238 239 287
f 238 287 286
f 239 240 288
f 239 288 287
f 240 193 241
f 240 241 288
f 241 242 290
f 241 290 289
f 242 243 291
f 242 291 290
f 243 244 292
f 243 292 291
f 244 245 293
f 244 293 292
f 245 246 294
f 245 294 293
f 246 247 295
f 246 295 294
f 247 248 296
f 247 296 295
f 248 249 297
f 248 297 296
f 249 250 298
f 249 298 297
f 250 251 299
f 250 299 298
f 251 252 300
f 251 300 299
f 252 253 301
f 252 301 300
f 253 254 302
f 253 302 301
f 254 255 303
f 254 303 302
f 255 256 304
f 255 304 303
f 256 257 305
f 256 305 304
f 257 258 306
f 257 306 305
f 258 259 307
f 258 307 306
f 259 260 308
f 259 308 307
f 260 261 309
f 260 309 308
f 261 262 310
f 261 310 309
f 262 263 311
f 262 311 310
f 263 264 312
f 263 312 311
f 264 265 313
f 264 313 312
f 265 266 314
f 265 314 313
f 266 267 315
f 266 315 314
f 267 268 316
f 267 316 315
f 268 269 317
f 268 317 316
f 269 270 318
f 269 318 317
f 270 271 319
f 270 319 318
f 271 272 320
f 271 320 319
f 272 273 321
f 272 321 320
f 273 274 322
f 273 322 321
f 274 275 323
f 274 323 322
f 275 276 324
f 275 324 323
f 276 277 325
f 276 325 324
f 277 278 326
f 277 326 325
f 278 279 327
f 278 327 326
f 279 280 328
f 279 328 327
f 280 281 329
f 280 329 328
f 281 282 330
f 281 330 329
f 282 283 331
f 282 331 330
f 283 284 332
f 283 332 331
f 284 285 333
f 284 333 332
f 285 286 334
f 285 334 333
f 286 287 335
f 286 335 334
f 287 288 336
f 287 336 335
f 288 241 289
f 288 289 336
f 289 290 338
f 289 338 337
f 290 291 339
f 290 339 338
f 291 292 340
f 291 340 339
f 292 293 341
f 292 341 340
f 293 294 342
f 293 342 341
f 294 295 343
f 294 343 342
f 295 296 344
f 295 344 343
f 296 297 345
f 296 345 344
f 297 298 346
f 297 346 345
f 298 299 347
f 298 347 346
f 299 300 348
f 299 348 347
f 300 301 349
f 300 349 348
f 301 302 350
f 301 350 349
f 302 303 351
f 302 351 350
f 303 304 352
f 303 352 351
f 304 305 353
f 304 353 352
f 305 306 354
f 305 354 353
f 306 307 355
f 306 355 354
f 307 308 356
f 307 356 355
f 308 309 357
f 308 357 356
f 309 310 358
f 309 358 357
f 310 311 359
f 310 359 358
f 311 312 360
f 311 360 359
f 312 313 361
f 312 361 360
f 313 314 362
f 313 362 361
f 314 315 363
f 314 363 362
f 315 316 364
f 315 364 363
f 316 317 365
f 316 365 364
f 317 318 366
f 317 366 365
f 318 319 367
f 318 367 366
f 319 320 368
f 319 368 367
f 320 321 369
f 320 369 368
f 321 322 370
f 321 370 369
f 322 323 371
f 322 371 370
f 323 324 372
f 323 372 371
f 324 325 373
f 324 373 372
f 325 326 374
f 325 374 373
f 326 327 375
f 326 375 374
f 327 328 376
f 327 376 375
f 328 329 377
f 328 377 376
f 329 330 378
f 329 378 377
f 330 331 379
f 330 379 378
f 331 332 380
f 331 380 379
f 332 333 381
f 332 381 380
f 333 334 382
f 333 382 381
f 334 335 383
f 334 383 382
f 335 336 384
f 335 384 383
f 336 289 337
f 336 337 384
f 337 338 386
f 337 386 385
f 338 339 387
f 338 387 386
f 339 340 388
f 339 388 387
f 340 341 389
f 340 389 388
f 341 342 390
f 341 390 389
f 342 343 391
f 342 391 390
f 343 344 392
f 343 392 391
f 344 345 393
f 344 393 392
f 345 346 394
f 345 394 393
f 346 347 395
f 346 395 394
f 347 348 396
f 347 396 395
f 348 349 397
f 348 397 396
f 349 350 398
f 349 398 397
f 350 351 399
f 350 399 398
f 351 352 400
f 351 400 399
f 352 353 401
f 352 401 400
f 353 354 402
f 353 402 401
f 354 355 403
f 354 403 402
f 355 356 404
f 355 404 403
f 356 357 405
f 356 405 404
f 357 358 406
f 357 406 405
f 358 359 407
f 358 407 406
f 359 360 408
f 359 408 407
f 360 361 409
f 360 409 408
f 361 362 410
f 361 410 409
f 362 363 411
f 362 411 410
f 363 364 412
f 363 412 411
f 364 365 413
f 364 413 412
f 365 366 414
f 365 414 413
f 366 367 415
f 366 415 414
f 367 368 416
f 367 416 415
f 368 369 417
f 368 417 416
f 369 370 418
f 369 418 417
f 370 371 419
f 370 419 418
f 371 372 420
f 371 420 419
f 372 373 421
f 372 421 420
f 373 374 422
f 373 422 421
f 374 375 423
f 374 423 422
f 375 376 424
f 375 424 423
f 376 377 425
f 376 425 424
f 377 378 426
f 377 426 425
f 378 379 427
f 378 427 426
f 379 380 428
f 379 428 427
f 380 381 429
f 380 429 428
f 381 382 430
f 381 430 429
f 382 383 431
f 382 431 430
f 383 384 432
f 383 432 431
f 384 337 385
f 384 385 432
f 385 386 434
f 385 434 433
f 386 387 435
f 386 435 434
f 387 388 436
f 387 436 435
f 388 389 437
f 388 437 436
f 389 390 438
f 389 438 437
f 390 391 439
f 390 439 438
f 391 392 440
f 391 440 439
f 392 393 441
f 392 441 440
f 393 394 442
f 393 442 441
f 394 395 443
f 394 443 442
f 395 396 444
f 395 444 443
f 396 397 445
f 396 445 444
f 397 398 446
f 397 446 445
f 398 399 447
f 398 447 446
f 399 400 448
f 399 448 447
f 400 401 449
f 400 449 448
f 401 402 450
f 401 450 449
f 402 403 451
f 402 451 450
f 403 404 452
f 403 452 451
f 404 405 453
f 404 453 452
f 405 406 454
f 405 454 453
f 406 407 455
f 406 455 454
f 407 408 456
f 407 456 455
f 408 409 457
f 408 457 456
f 409 410 458
f 409 458 457
f 410 411 459
f 410 459 458
f 411 412 460
f 411 460 459
f 412 413 461
f 412 461 460
f 413 414 462
f 413 462 461
f 414 415 463
f 414 463 462
f 415 416 464
f 415 464 463
f 416 417 465
f 416 465 464
f 417 418 466
f 417 466 465
f 418 419 467
f 418 467 466
f 419 420 468
f 419 468 467
f 420 421 469
f 420 469 468
f 421 422 470
f 421 470 469
f 422 423 471
f 422 471 470
f 423 424 472
f 423 472 471
f 424 425 473
f 424 473 472
f 425 426 474
f 425 474 473
f 426 427 475
f 426 475 474
f 427 428 476
f 427 476 475
f 428 429 477
f 428 477 476
f 429 430 478
f 429 478 477
f 430 431 479
f 430 479 478
f 431 432 480
f 431 480 479
f 432 385 433
f 432 433 480
f 433 434 482
f 433 482 481
f 434 435 483
f 434 483 482
f 435 436 484
f 435 484 483
f 436 437 485
f 436 485 484
f 437 438 486
f 437 486 485
f 438 439 487
f 438 487 486
f 439 440 488
f 439 488 487
f 440 441 489
f 440 489 488
f 441 442 490
f 441 490 489
f 442 443 491
f 442 491 490
f 443 444 492
f 443 492 491
f 444 445 493
f 444 493 492
f 445 446 494
f 445 494 493
f 446 447 495
f 446 495 494
f 447 448 496
f 447 496 495
f 448 449 497
f 448 497 496
f 449 450 498
f 449 498 497
f 450 451 499
f 450 499 498
f 451 452 500
f 451 500 499
f 452 453 501
f 452 501 500
f 453 454 502
f 453 502 501
f 454 455 503
f 454 503 502
f 455 456 504
f 455 504 503
f 456 457 505
f 456 505 504
f 457 458 506
f 457 506 505
f 458 459 507
f 458 507 506
f 459 460 508
f 459 508 507
f 460 461 509
f 460 509 508
f 461 462 510
f 461 510 509
f 462 463 511
f 462 511 510
f 463 464 512
f 463 512 511
f 464 465 513
f 464 513 512
f 465 466 514
f 465 514 513
f 466 467 515
f 466 515 514
f 467 468 516
f 467 516 515
f 468 469 517
f 468 517 516
f 469 470 518
f 469 518 517
f 470 471 519
f 470 519 518
f 471 472 520
f 471 520 519
f 472 473 521
f 472 521 520
f 473 474 522
f 473 522 521
f 474 475 523
f 474 523 522
f 475 476 524
f 475 524 523
f 476 477 525
f 476 525 524
f 477 478 526
f 477 526 525
f 478 479 527
f 478 527 526
f 479 480 528
f 479 528 527
f 480 433 481
f 480 481 528
f 481 482 530
f 481 530 529
f 482 483 531
f 482 531 530
f 483 484 532
f 483 532 531
f 484 485 533
f 484 533 532
f 485 486 534
f 485 534 533
f 486 487 535
f 486 535 534
f 487 488 536
f 487 536 535
f 488 489 537
f 488 537 536
f 489 490 538
f 489 538 537
f 490 491 539
f 490 539 538
f 491 492 540
f 491 540 539
f 492 493 541
f 492 541 540
f 493 494 542
f 493 542 541
f 494 495 543
f 494 543 542
f 495 496 544
f 495 544 543
f 496 497 545
f 496 545 544
f 497 498 546
f 497 546 545
f 498 499 547
f 498 547 546
f 499 500 548
f 499 548 547
f 500 501 549
f 500 549 548
f 501 502 550
f 501 550 549
f 502 503 551
f 502 551 550
f 503 504 552
f 503 552 551
f 504 505 553
f 504 553 552
f 505 506 554
f 505 554 553
f 506 507 555
f 506 555 554
f 507 508 556
f 507 556 555
f 508 509 557
f 508 557 556
f 509 510 558
f 509 558 557
f 510 511 559
f 510 559 558
f 511 512 560
f 511 560 559
f 512 513 561
f 512 561 560
f 513 514 562
f 513 562 561
f 514 515 563
f 514 563 562
f 515 516 564
f 515 564 563
f 516 517 565
f 516 565 564
f 517 518 566
f 517 566 565
f 518 519 567
f 518 567 566
f 519 520 568
f 519 568 567
f 520 521 569
f 520 569 568
f 521 522 570
f 521 570 569
f 522 523 571
f 522 571 570
f 523 524 572
f 523 572 571
f 524 525 573
f 524 573 572
f 525 526 574
f 525 574 573
f 526 527 575
f 526 575 574
f 527 528 576
f 527 576 575
f 528 481 529
f 528 529 576
f 529 530 578
f 529 578 577
f 530 531 579
f 530 579 578
f 531 532 580
f 531 580 579
f 532 533 581
f 532 581 580
f 533 534 582
f 533 582 581
f 534 535 583
f 534 583 582
f 535 536 584
f 535 584 583
f 536 537 585
f 536 585 584
f 537 538 586
f 537 586 585
f 538 539 587
f 538 587 586
f 539 540 588
f 539 588 587
f 540 541 589
f 540 589 588
f 541 542 590
f 541 590 589
f 542 543 591
f 542 591 590
f 543 544 592
f 543 592 591
f 544 545 593
f 544 593 592
f 545 546 594
f 545 594 593
f 546 547 595
f 546 595 594
f 547 548 596
f 547 596 595
f 548 549 597
f 548 597 596
f 549 550 598
f 549 598 597
f 550 551 599
f 550 599 598
f 551 552 600
f 551 600 599
f 552 553 601
f 552 601 600
f 553 554 602
f 553 602 601
f 554 555 603
f 554 603 602
f 555 556 604
f 555 604 603
f 556 557 605
f 556 605 604
f 557 558 606
f 557 606 605
f 558 559 607
f 558 607 606
f 559 560 608
f 559 608 607
f 560 561 609
f 560 609 608
f 561 562 610
f 561 610 609
f 562 563 611
f 562 611 610
f 563 564 612
f 563 612 611
f 564 565 613
f 564 613 612
f 565 566 614
f 565 614 613
f 566 567 615
f 566 615 614
f 567 568 616
f 567 616 615
f 568 569 617
f 568 617 616
f 569 570 618
f 569 618 617
f 570 571 619
f 570 619 618
f 571 572 620
f 571 620 619
f 572 573 621
f 572 621 620
f 573 574 622
f 573 622 621
f 574 575 623
f 574 623 622
f 575 576 624
f 575 624 623
f 576 529 577
f 576 577 624
f 577 578 626
f 577 626 625
f 578 579 627
f 578 627 626
f 579 580 628
f 579 628 627
f 580 581 629
f 580 629 628
f 581 582 630
f 581 630 629
f 582 583 631
f 582 631 630
f 583 584 632
f 583 632 631
f 584 585 633
f 584 633 632
f 585 586 634
f 585 634 633
f 586 587 635
f 586 635 634
f 587 588 636
f 587 636 635
f 588 589 637
f 588 637 636
f 589 590 638
f 589 638 637
f 590 591 639
f 590 639 638
f 591 592 640
f 591 640 639
f 592 593 641
f 592 641 640
f 593 594 642
f 593 642 641
f 594 595 643
f 594 643 642
f 595 596 644
f 595 644 643
f 596 597 645
f 596 645 644
f 597 598 646
f 597 646 645
f 598 599 647
f 598 647 646
f 599 600 648
f 599 648 647
f 600 601 649
f 600 649 648
f 601 602 650
f 601 650 649
f 602 603 651
f 602 651 650
f 603 604 652
f 603 652 651
f 604 605 653
f 604 653 652
f 605 606 654
f 605 654 653
f 606 607 655
f 606 655 654
f 607 608 656
f 607 656 655
f 608 609 657
f 608 657 656
f 609 610 658
f 609 658 657
f 610 611 659
f 610 659 658
f 611 612 660
f 611 660 659
f 612 613 661
f 612 661 660
f 613 614 662
f 613 662 661
f 614 615 663
f 614 663 662
f 615 616 664
f 615 664 663
f 616 617 665
f 616 665 664
f 617 618 666
f 617 666 665
f 618 619 667
f 618 667 666
f 619 620 668
f 619 668 667
f 620 621 669
f 620 669 668
f 621 622 670
f 621 670 669
f 622 623 671
f 622 671 670
f 623 624 672
f 623 672 671
f 624 577 625
f 624 625 672
f 625 626 674
f 625 674 673
f 626 627 675
f 626 675 674
f 627 628 676
f 627 676 675
f 628 629 677
f 628 677 676
f 629 630 678
f 629 678 677
f 630 631 679
f 630 679 678
f 631 632 680
f 631 680 679
f 632 633 681
f 632 681 680
f 633 634 682
f 633 682 681
f 634 635 683
f 634 683 682
f 635 636 684
f 635 684 683
f 636 637 685
f 636 685 684
f 637 638 686
f 637 686 685
f 638 639 687
f 638 687 686
f 639 640 688
f 639 688 687
f 640 641 689
f 640 689 688
f 641 642 690
f 641 690 689
f 642 643 691
f 642 691 690
f 643 644 692
f 643 692 691
f 644 645 693
f 644 693 692
f 645 646 694
f 645 694 693
f 646 647 695
f 646 695 694
f 647 648 696
f 647 696 695
f 648 649 697
f 648 697 696
f 649 650 698
f 649 698 697
f 650 651 699
f 650 699 698
f 651 652 700
f 651 700 699
f 652 653 701
f 652 701 700
f 653 654 702
f 653 702 701
f 654 655 703
f 654 703 702
f 655 656 704
f 655 704 703
f 656 657 705
f 656 705 704
f 657 658 706
f 657 706 705
f 658 659 707
f 658 707 706
f 659 660 708
f 659 708 707
f 660 661 709
f 660 709 708
f 661 662 710
f 661 710 709
f 662 663 711
f 662 711 710
f 663 664 712
f 663 712 711
f 664 665 713
f 664 713 712
f 665 666 714
f 665 714 713
f 666 667 715
f 666 715 714
f 667 668 716
f 667 716 715
f 668 669 717
f 668 717 716
f 669 670 718
f 669 718 717
f 670 671 719
f 670 719 718
f 671 672 720
f 671 720 719
f 672 625 673
f 672 673 720
f 673 674 722
f 673 722 721
f 674 675 723
f 674 723 722
f 675 676 724
f 675 724 723
f 676 677 725
f 676 725 724
f 677 678 726
f 677 726 725
f 678 679 727
f 678 727 726
f 679 680 728
f 679 728 727
f 680 681 729
f 680 729 728
f 681 682 730
f 681 730 729
f 682 683 731
f 682 731 730
f 683 684 732
f 683 732 731
f 684 685 733
f 684 733 732
f 685 686 734
f 685 734 733
f 686 687 735
f 686 735 734
f 687 688 736
f 687 736 735
f 688 689 737
f 688 737 736
f 689 690 738
f 689 738 737
f 690 691 739
f 690 739 738
f 691 692 740
f 691 740 739
f 692 693 741
f 692 741 740
f 693 694 742
f 693 742 741
f 694 695 743
f 694 743 742
f 695 696 744
f 695 744 743
f 696 697 745
f 696 745 744
f 697 698 746
f 697 746 745
f 698 699 747
f 698 747 746
f 699 700 748
f 699 748 747
f 700 701 749
f 700 749 748
f 701 702 750
f 701 750 749
f 702 703 751
f 702 751 750
f 703 704 752
f 703 752 751
f 704 705 753
f 704 753 752
f 705 706 754
f 705 754 753
f 706 707 755
f 706 755 754
f 707 708 756
f 707 756 755
f 708 709 757
f 708 757 756
f 709 710 758
f 709 758 757
f 710 711 759
f 710 759 758
f 711 712 760
f 711 760 759
f 712 713 761
f 712 761 760
f 713 714 762
f 713 762 761
f 714 715 763
f 714 763 762
f 715 716 764
f 715 764 763
f 716 717 765
f 716 765 764
f 717 718 766
f 717 766 765
f 718 719 767
f 718 767 766
f 719 720 768
f 719 768 767
f 720 673 721
f 720 721 768
f 721 722 770
f 721 770 769
f 722 723 771
f 722 771 770
f 723 724 772
f 723 772 771
f 724 725 773
f 724 773 772
f 725 726 774
f 725 774 773
f 726 727 775
f 726 775 774
f 727 728 776
f 727 776 775
f 728 729 777
f 728 777 776
f 729 730 778
f 729 778 777
f 730 731 779
f 730 779 778
f 731 732 780
f 731 780 779
f 732 733 781
f 732 781 780
f 733 734 782
f 733 782 781
f 734 735 783
f 734 783 782
f 735 736 784
f 735 784 783
f 736 737 785
f 736 785 784
f 737 738 786
f 737 786 785
f 738 739 787
f 738 787 786
f 739 740 788
f 739 788 787
f 740 741 789
f 740 789 788
f 741 742 790
f 741 790 789
f 742 743 791
f 742 791 790
f 743 744 792
f 743 792 791
f 744 745 793
f 744 793 792
f 745 746 794
f 745 794 793
f 746 747 795
f 746 795 794
f 747 748 796
f 747 796 795
f 748 749 797
f 748 797 796
f 749 750 798
f 749 798 797
f 750 751 799
f 750 799 798
f 751 752 800
f 751 800 799
f 752 753 801
f 752 801 800
f 753 754 802
f 753 802 801
f 754 755 803
f 754 803 802
f 755 756 804
f 755 804 803
f 756 757 805
f 756 805 804
f 757 758 806
f 757 806 805
f 758 759 807
f 758 807 806
f 759 760 808
f 759 808 807
f 760 761 809
f 760 809 808
f 761 762 810
f 761 810 809
f 762 763 811
f 762 811 810
f 763 764 812
f 763 812 811
f 764 765 813
f 764 813 812
f 765 766 814
f 765 814 813
f 766 767 815
f 766 815 814
f 767 768 816
f 767 816 815
f 768 721 769
f 768 769 816
f 817 2 1
f 818 769 770
f 817 3 2
f 818 770 771
f 817 4 3
f 818 771 772
f 817 5 4
f 818 772 773
f 817 6 5
f 818 773 774
f 817 7 6
f 818 774 775
f 817 8 7
f 818 775 776
f 817 9 8
f 818 776 777
f 817 10 9
f 818 777 778
f 817 11 10
f 818 778 779
f 817 12 11
f 818 779 780
f 817 13 12
f 818 780 781
f 817 14 13
f 818 781 782
f 817 15 14
f 818 782 783
f 817 16 15
f 818 783 784
f 817 17 16
f 818 784 785
f 817 18 17
f 818 785 786
f 817 19 18
f 818 786 787
f 817 20 19
f 818 787 788
f 817 21 20
f 818 788 789
f 817 22 21
f 818 789 790
f 817 23 22
f 818 790 791
f 817 24 23
f 818 791 792
f 817 25 24
f 818 792 793
f 817 26 25
f 818 793 794
f 817 27 26
f 818 794 795
f 817 28 27
f 818 795 796
f 817 29 28
f 818 796 797
f 817 30 29
f 818 797 798
f 817 31 30
f 818 798 799
f 817 32 31
f 818 799 800
f 817 33 32
f 818 800 801
f 817 34 33
f 818 801 802
f 817 35 34
f 818 802 803
f 817 36 35
f 818 803 804
f 817 37 36
f 818 804 805
f 817 38 37
f 818 805 806
f 817 39 38
f 818 806 807
f 817 40 39
f 818 807 808
f 817 41 40
f 818 808 809
f 817 42 41
f 818 809 810
f 817 43 42
f 818 810 811
f 817 44 43
f 818 811 812
f 817 45 44
f 818 812 813
f 817 46 45
f 818 813 814
f 817 47 46
f 818 814 815
f 817 48 47
f 818 815 816
f 817 1 48
f 818 816 769
